<svg width="876" height="753" viewBox="0 0 876 753" fill="none" xmlns="http://www.w3.org/2000/svg">
<rect width="876" height="753" fill="#1E1E1E"/>
<g filter="url(#filter0_d_0_1)">
<path d="M526.148 274.267C553.008 274.267 574.781 252.493 574.781 225.633C574.781 198.774 553.008 177 526.148 177C499.288 177 477.515 198.774 477.515 225.633C477.515 252.493 499.288 274.267 526.148 274.267Z" stroke="#A91212" stroke-width="20" stroke-linecap="round" stroke-linejoin="round"/>
<path d="M468.111 305.073L387.666 405.627L488.221 506.184L437.944 616.793" stroke="#A91212" stroke-width="20" stroke-linecap="round" stroke-linejoin="round"/>
<path d="M317.278 335.24L399.635 254.796L468.109 305.074L538.501 385.52H629" stroke="#A91212" stroke-width="20" stroke-linecap="round" stroke-linejoin="round"/>
<path d="M377.61 486.072L347.444 506.184H267" stroke="#A91212" stroke-width="20" stroke-linecap="round" stroke-linejoin="round"/>
</g>
<path d="M200.737 401.14L258.065 456.501L335.57 376.242L329.837 370.706L338.141 362.107C341.812 358.306 343.822 353.202 343.73 347.919C343.637 342.636 341.45 337.606 337.649 333.935L320.451 317.327C316.65 313.656 311.546 311.646 306.263 311.738C300.98 311.83 295.95 314.017 292.279 317.819L283.975 326.418L278.242 320.882L200.737 401.14ZM303.744 328.891C304.479 328.13 305.485 327.693 306.541 327.675C307.598 327.656 308.619 328.058 309.379 328.792L326.577 345.4C327.337 346.135 327.775 347.141 327.793 348.197C327.812 349.254 327.41 350.275 326.675 351.035L318.371 359.634L295.44 337.49L303.744 328.891Z" fill="#585656"/>
<path d="M347.035 387.314L269.53 467.573C274.092 471.977 280.216 474.39 286.556 474.279C292.896 474.168 298.932 471.544 303.337 466.983L347.625 421.121C352.03 416.559 354.442 410.435 354.332 404.095C354.221 397.755 351.596 391.719 347.035 387.314Z" fill="#585656"/>
<path d="M266.777 309.809C262.215 305.405 256.091 302.992 249.751 303.103C243.411 303.214 237.375 305.838 232.97 310.4L188.682 356.262C184.277 360.823 181.865 366.947 181.975 373.287C182.086 379.627 184.711 385.663 189.272 390.068L266.777 309.809Z" fill="#585656"/>
<defs>
<filter id="filter0_d_0_1" x="253" y="167" width="390" height="467.795" filterUnits="userSpaceOnUse" color-interpolation-filters="sRGB">
<feFlood flood-opacity="0" result="BackgroundImageFix"/>
<feColorMatrix in="SourceAlpha" type="matrix" values="0 0 0 0 0 0 0 0 0 0 0 0 0 0 0 0 0 0 127 0" result="hardAlpha"/>
<feOffset dy="4"/>
<feGaussianBlur stdDeviation="2"/>
<feComposite in2="hardAlpha" operator="out"/>
<feColorMatrix type="matrix" values="0 0 0 0 0 0 0 0 0 0 0 0 0 0 0 0 0 0 0.25 0"/>
<feBlend mode="normal" in2="BackgroundImageFix" result="effect1_dropShadow_0_1"/>
<feBlend mode="normal" in="SourceGraphic" in2="effect1_dropShadow_0_1" result="shape"/>
</filter>
</defs>
</svg>
